<?xml version="1.0" encoding="UTF-8"?>
<!DOCTYPE svg PUBLIC "-//W3C//DTD SVG 1.1//EN" "http://www.w3.org/Graphics/SVG/1.1/DTD/svg11.dtd">
<svg xmlns="http://www.w3.org/2000/svg" version="1.1" width="512px" height="512px" style="shape-rendering:geometricPrecision; text-rendering:geometricPrecision; image-rendering:optimizeQuality; fill-rule:evenodd; clip-rule:evenodd" xmlns:xlink="http://www.w3.org/1999/xlink">
<g><path style="opacity:0.981" fill="#d3dce5" d="M 104.5,65.5 C 102.821,65.1077 101.154,64.6077 99.5,64C 81.8365,63.5001 64.1698,63.3334 46.5,63.5C 53.9554,54.2064 61.6221,45.0398 69.5,36C 87.8962,26.7799 99.3962,32.2799 104,52.5C 104.499,56.8206 104.666,61.1539 104.5,65.5 Z"/></g>
<g><path style="opacity:0.99" fill="#6581c6" d="M 46.5,63.5 C 64.1698,63.3334 81.8365,63.5001 99.5,64C 101.154,64.6077 102.821,65.1077 104.5,65.5C 115.167,74.8333 115.167,84.1667 104.5,93.5C 102.821,93.8923 101.154,94.3923 99.5,95C 81.8365,95.4999 64.1698,95.6666 46.5,95.5C 36.718,94.7165 31.718,89.3831 31.5,79.5C 31.718,69.6169 36.718,64.2835 46.5,63.5 Z"/></g>
<g><path style="opacity:0.947" fill="#d3dce5" d="M 150.5,70.5 C 155.202,71.0787 159.869,71.912 164.5,73C 167.318,76.3379 168.151,80.1712 167,84.5C 164.735,87.4655 161.735,88.7989 158,88.5C 153.694,88.2553 149.527,87.4219 145.5,86C 142.833,81.6667 142.833,77.3333 145.5,73C 147.315,72.2432 148.981,71.4098 150.5,70.5 Z"/></g>
<g><path style="opacity:0.951" fill="#d3dce5" d="M 180.5,90.5 C 187.079,89.038 191.579,91.3713 194,97.5C 198.234,104.29 197.067,109.79 190.5,114C 187.217,114.743 184.217,114.076 181.5,112C 177.759,106.702 176.259,100.869 177,94.5C 177.69,92.6498 178.856,91.3164 180.5,90.5 Z"/></g>
<g><path style="opacity:0.982" fill="#d3dce5" d="M 104.5,93.5 C 106.37,106.058 102.703,116.558 93.5,125C 85.0696,128.853 77.0696,128.186 69.5,123C 61.6221,113.96 53.9554,104.794 46.5,95.5C 64.1698,95.6666 81.8365,95.4999 99.5,95C 101.154,94.3923 102.821,93.8923 104.5,93.5 Z"/></g>
<g><path style="opacity:0.998" fill="#d85364" d="M 391.5,159.5 C 391.5,185.5 391.5,211.5 391.5,237.5C 380.833,229.5 370.167,229.5 359.5,237.5C 359.5,211.5 359.5,185.5 359.5,159.5C 359.333,141.497 359.5,123.497 360,105.5C 361.833,101 365,97.8333 369.5,96C 392.831,95.5 416.164,95.3334 439.5,95.5C 439.666,101.842 439.5,108.175 439,114.5C 436.833,120.667 432.667,124.833 426.5,127C 414.838,127.5 403.171,127.667 391.5,127.5C 391.5,138.167 391.5,148.833 391.5,159.5 Z"/></g>
<g><path style="opacity:0.957" fill="#d3dce5" d="M 185.5,129.5 C 191.489,128.065 195.655,130.065 198,135.5C 198.826,140.589 198.492,145.589 197,150.5C 191.562,156.052 186.562,155.719 182,149.5C 181.333,144.167 181.333,138.833 182,133.5C 183.376,132.295 184.542,130.962 185.5,129.5 Z"/></g>
<g><path style="opacity:0.999" fill="#d88852" d="M 233.5,159.5 C 260.437,165.6 277.937,181.933 286,208.5C 287.472,250.794 287.972,293.127 287.5,335.5C 242.167,335.5 196.833,335.5 151.5,335.5C 151.333,295.499 151.5,255.499 152,215.5C 158.5,185 177,166.5 207.5,160C 216.16,159.5 224.827,159.334 233.5,159.5 Z"/></g>
<g><path style="opacity:0.999" fill="#ecad64" d="M 233.5,159.5 C 275.5,159.5 317.5,159.5 359.5,159.5C 359.5,185.5 359.5,211.5 359.5,237.5C 351.144,245.823 349.311,255.49 354,266.5C 362.65,279.826 374.15,282.993 388.5,276C 401.879,264.013 402.879,251.18 391.5,237.5C 391.5,211.5 391.5,185.5 391.5,159.5C 403.505,159.333 415.505,159.5 427.5,160C 455.307,166.473 472.473,183.64 479,211.5C 479.667,260.167 479.667,308.833 479,357.5C 477.167,362 474,365.167 469.5,367C 438.168,367.5 406.835,367.667 375.5,367.5C 359.5,367.5 343.5,367.5 327.5,367.5C 314.167,367.5 300.833,367.5 287.5,367.5C 287.5,356.833 287.5,346.167 287.5,335.5C 287.972,293.127 287.472,250.794 286,208.5C 277.937,181.933 260.437,165.6 233.5,159.5 Z"/></g>
<g><path style="opacity:1" fill="#d3d9e0" d="M 186.5,169.5 C 191.28,168.641 194.78,170.308 197,174.5C 197.667,179.167 197.667,183.833 197,188.5C 194.774,192.861 191.274,194.361 186.5,193C 184.333,192.167 182.833,190.667 182,188.5C 181.333,183.833 181.333,179.167 182,174.5C 183.707,172.963 185.207,171.296 186.5,169.5 Z"/></g>
<g><path style="opacity:1" fill="#d3d9e0" d="M 186.5,209.5 C 191.28,208.641 194.78,210.308 197,214.5C 197.667,219.167 197.667,223.833 197,228.5C 194.774,232.861 191.274,234.361 186.5,233C 184.333,232.167 182.833,230.667 182,228.5C 181.333,223.833 181.333,219.167 182,214.5C 183.707,212.963 185.207,211.296 186.5,209.5 Z"/></g>
<g><path style="opacity:1" fill="#e26676" d="M 391.5,237.5 C 402.879,251.18 401.879,264.013 388.5,276C 374.15,282.993 362.65,279.826 354,266.5C 349.311,255.49 351.144,245.823 359.5,237.5C 370.167,229.5 380.833,229.5 391.5,237.5 Z"/></g>
<g><path style="opacity:1" fill="#d3d9e0" d="M 188.5,249.5 C 192.803,248.796 196.303,250.13 199,253.5C 200.767,257.086 202.267,260.752 203.5,264.5C 202.592,270.959 198.926,273.459 192.5,272C 187.48,268.306 184.48,263.306 183.5,257C 184.299,253.896 185.966,251.396 188.5,249.5 Z"/></g>
<g><path style="opacity:1" fill="#d3d9df" d="M 218.5,271.5 C 222.753,270.986 226.587,271.986 230,274.5C 233.175,282.152 230.675,286.486 222.5,287.5C 215.727,286.303 213.227,282.303 215,275.5C 216.376,274.295 217.542,272.962 218.5,271.5 Z"/></g>
<g><path style="opacity:0.999" fill="#536782" d="M 151.5,335.5 C 196.833,335.5 242.167,335.5 287.5,335.5C 287.5,346.167 287.5,356.833 287.5,367.5C 214.166,367.667 140.833,367.5 67.5,367C 65.6667,366.5 64.5,365.333 64,363.5C 63.3333,355.5 63.3333,347.5 64,339.5C 64.5,337.667 65.6667,336.5 67.5,336C 95.498,335.5 123.498,335.333 151.5,335.5 Z"/></g>
<g><path style="opacity:0.999" fill="#536782" d="M 327.5,367.5 C 343.5,367.5 359.5,367.5 375.5,367.5C 375.667,403.502 375.5,439.502 375,475.5C 374.5,477.333 373.333,478.5 371.5,479C 358.167,479.667 344.833,479.667 331.5,479C 329.667,478.5 328.5,477.333 328,475.5C 327.5,439.502 327.333,403.502 327.5,367.5 Z"/></g>
</svg>
