<?xml version="1.0" encoding="UTF-8"?>
<!DOCTYPE svg PUBLIC "-//W3C//DTD SVG 1.1//EN" "http://www.w3.org/Graphics/SVG/1.1/DTD/svg11.dtd">
<svg xmlns="http://www.w3.org/2000/svg" version="1.1" width="347px" height="96px" style="shape-rendering:geometricPrecision; text-rendering:geometricPrecision; image-rendering:optimizeQuality; fill-rule:evenodd; clip-rule:evenodd" xmlns:xlink="http://www.w3.org/1999/xlink">
<g><path style="opacity:1" fill="#ff9553" d="M -0.5,-0.5 C 115.167,-0.5 230.833,-0.5 346.5,-0.5C 346.5,31.5 346.5,63.5 346.5,95.5C 230.833,95.5 115.167,95.5 -0.5,95.5C -0.5,63.5 -0.5,31.5 -0.5,-0.5 Z M 2.5,2.5 C 116.5,2.5 230.5,2.5 344.5,2.5C 344.5,32.5 344.5,62.5 344.5,92.5C 230.5,92.5 116.5,92.5 2.5,92.5C 2.5,62.5 2.5,32.5 2.5,2.5 Z M 324.5,39.5 C 326.5,39.5 328.5,39.5 330.5,39.5C 330.241,43.0681 328.241,44.4015 324.5,43.5C 324.5,42.1667 324.5,40.8333 324.5,39.5 Z M 223.5,40.5 C 232.171,40.1785 234.504,43.8452 230.5,51.5C 222.878,54.0416 219.711,51.3749 221,43.5C 221.698,42.3094 222.531,41.3094 223.5,40.5 Z M 299.5,43.5 C 300.864,45.22 301.864,47.22 302.5,49.5C 300.833,50.8333 299.167,50.8333 297.5,49.5C 298.372,47.5504 299.039,45.5504 299.5,43.5 Z M 324.5,49.5 C 326.833,49.5 329.167,49.5 331.5,49.5C 331.67,50.8221 331.337,51.9887 330.5,53C 328.527,53.4955 326.527,53.6621 324.5,53.5C 324.5,52.1667 324.5,50.8333 324.5,49.5 Z"/></g>
<g><path style="opacity:1" fill="#ff914e" d="M 8.5,8.5 C 63.5,8.5 118.5,8.5 173.5,8.5C 173.5,34.5 173.5,60.5 173.5,86.5C 118.5,86.5 63.5,86.5 8.5,86.5C 8.5,60.5 8.5,34.5 8.5,8.5 Z"/></g>
<g><path style="opacity:1" fill="#fffaf8" d="M 20.5,33.5 C 25.9586,33.1033 31.2919,33.6033 36.5,35C 39.128,38.4651 39.128,41.9651 36.5,45.5C 39.5744,48.6757 40.2411,52.3423 38.5,56.5C 37.3349,57.5836 36.0016,58.4169 34.5,59C 29.8452,59.4992 25.1785,59.6658 20.5,59.5C 20.5,50.8333 20.5,42.1667 20.5,33.5 Z"/></g>
<g><path style="opacity:1" fill="#fff3ec" d="M 56.5,32.5 C 70.3246,32.4802 75.8246,39.1469 73,52.5C 68.5316,59.0849 62.365,61.2515 54.5,59C 47.3659,54.5985 45.1993,48.4318 48,40.5C 50.0738,36.9231 52.9072,34.2565 56.5,32.5 Z"/></g>
<g><path style="opacity:1" fill="#fff7f3" d="M 90.5,33.5 C 91.8221,33.33 92.9887,33.6634 94,34.5C 97.371,42.7399 100.871,50.9065 104.5,59C 101.042,59.676 99.0421,58.176 98.5,54.5C 94.2047,53.3391 89.8713,53.1725 85.5,54C 84.7402,55.4411 84.0736,56.9411 83.5,58.5C 82.277,59.6139 80.9437,59.7805 79.5,59C 83.2669,50.5291 86.9336,42.0291 90.5,33.5 Z"/></g>
<g><path style="opacity:1" fill="#fff9f6" d="M 120.5,50.5 C 118.735,49.5386 116.735,49.2053 114.5,49.5C 114.5,52.8333 114.5,56.1667 114.5,59.5C 113.5,59.5 112.5,59.5 111.5,59.5C 111.5,50.8333 111.5,42.1667 111.5,33.5C 116.179,33.3342 120.845,33.5008 125.5,34C 129.861,36.2258 131.361,39.7258 130,44.5C 128.833,47 127,48.8333 124.5,50C 126.377,52.921 128.377,55.7544 130.5,58.5C 129.277,59.6139 127.944,59.7805 126.5,59C 124.601,56.0123 122.601,53.1789 120.5,50.5 Z"/></g>
<g><path style="opacity:1" fill="#fff9f5" d="M 140.5,33.5 C 145.959,33.1033 151.292,33.6033 156.5,35C 164.141,41.933 164.475,49.2663 157.5,57C 152.1,59.278 146.434,60.1113 140.5,59.5C 140.5,50.8333 140.5,42.1667 140.5,33.5 Z"/></g>
<g><path style="opacity:1" fill="#ff9a5c" d="M 191.5,32.5 C 198.092,31.6404 203.592,33.6404 208,38.5C 209.009,40.0249 209.509,41.6916 209.5,43.5C 205.698,44.1197 202.365,43.2863 199.5,41C 191.624,39.5455 188.957,42.7121 191.5,50.5C 195.243,53.4283 198.576,53.095 201.5,49.5C 204.086,48.52 206.753,48.1866 209.5,48.5C 208.365,56.1283 203.865,60.1283 196,60.5C 184.694,58.5844 180.36,51.9177 183,40.5C 185.074,36.9231 187.907,34.2565 191.5,32.5 Z"/></g>
<g><path style="opacity:1" fill="#ff995a" d="M 222.5,32.5 C 239.179,32.6529 244.346,40.3195 238,55.5C 231.221,61.4347 224.055,61.9347 216.5,57C 210.927,49.3965 211.26,42.0632 217.5,35C 219.315,34.2432 220.981,33.4098 222.5,32.5 Z M 223.5,40.5 C 222.531,41.3094 221.698,42.3094 221,43.5C 219.711,51.3749 222.878,54.0416 230.5,51.5C 234.504,43.8452 232.171,40.1785 223.5,40.5 Z"/></g>
<g><path style="opacity:1" fill="#ff9554" d="M 244.5,33.5 C 247.167,33.5 249.833,33.5 252.5,33.5C 252.5,39.8333 252.5,46.1667 252.5,52.5C 256.167,52.5 259.833,52.5 263.5,52.5C 263.5,54.8333 263.5,57.1667 263.5,59.5C 257.167,59.5 250.833,59.5 244.5,59.5C 244.5,50.8333 244.5,42.1667 244.5,33.5 Z"/></g>
<g><path style="opacity:1" fill="#ff9554" d="M 266.5,33.5 C 269.167,33.5 271.833,33.5 274.5,33.5C 274.5,39.8333 274.5,46.1667 274.5,52.5C 278.167,52.5 281.833,52.5 285.5,52.5C 285.5,54.8333 285.5,57.1667 285.5,59.5C 279.167,59.5 272.833,59.5 266.5,59.5C 266.5,50.8333 266.5,42.1667 266.5,33.5 Z"/></g>
<g><path style="opacity:1" fill="#ff9859" d="M 295.5,33.5 C 298.572,33.1826 301.572,33.5159 304.5,34.5C 307.74,42.7238 311.073,50.8905 314.5,59C 313,59.1667 311.5,59.3333 310,59.5C 306.798,58.1225 303.464,57.1225 300,56.5C 297.719,56.5634 295.886,57.3968 294.5,59C 291.854,59.4974 289.187,59.6641 286.5,59.5C 289.5,50.8333 292.5,42.1667 295.5,33.5 Z M 299.5,43.5 C 299.039,45.5504 298.372,47.5504 297.5,49.5C 299.167,50.8333 300.833,50.8333 302.5,49.5C 301.864,47.22 300.864,45.22 299.5,43.5 Z"/></g>
<g><path style="opacity:1" fill="#ff9859" d="M 316.5,33.5 C 323.284,33.0796 329.95,33.5796 336.5,35C 339.089,38.5976 339.089,42.2643 336.5,46C 341.019,51.2155 340.353,55.5488 334.5,59C 328.509,59.4995 322.509,59.6662 316.5,59.5C 316.5,50.8333 316.5,42.1667 316.5,33.5 Z M 324.5,39.5 C 324.5,40.8333 324.5,42.1667 324.5,43.5C 328.241,44.4015 330.241,43.0681 330.5,39.5C 328.5,39.5 326.5,39.5 324.5,39.5 Z M 324.5,49.5 C 324.5,50.8333 324.5,52.1667 324.5,53.5C 326.527,53.6621 328.527,53.4955 330.5,53C 331.337,51.9887 331.67,50.8221 331.5,49.5C 329.167,49.5 326.833,49.5 324.5,49.5 Z"/></g>
<g><path style="opacity:1" fill="#ff9554" d="M 23.5,36.5 C 26.8499,36.335 30.1832,36.5017 33.5,37C 36.1667,39.3333 36.1667,41.6667 33.5,44C 30.1832,44.4983 26.8499,44.665 23.5,44.5C 23.5,41.8333 23.5,39.1667 23.5,36.5 Z"/></g>
<g><path style="opacity:1" fill="#ff924f" d="M 55.5,36.5 C 65.9922,34.8335 70.8256,39.1669 70,49.5C 67.4967,55.461 62.9967,57.6277 56.5,56C 51.3652,52.9446 49.5319,48.4446 51,42.5C 52.332,40.34 53.832,38.34 55.5,36.5 Z"/></g>
<g><path style="opacity:1" fill="#ff914e" d="M 115.5,36.5 C 119.257,36.0708 122.757,36.7375 126,38.5C 126.814,40.9018 126.647,43.2351 125.5,45.5C 124.583,46.1272 123.583,46.4606 122.5,46.5C 120.167,46.5 117.833,46.5 115.5,46.5C 115.5,43.1667 115.5,39.8333 115.5,36.5 Z"/></g>
<g><path style="opacity:1" fill="#ff9350" d="M 143.5,36.5 C 148.08,36.1134 152.414,36.9468 156.5,39C 160.947,44.9807 160.281,50.314 154.5,55C 150.94,56.2367 147.273,56.7367 143.5,56.5C 143.5,49.8333 143.5,43.1667 143.5,36.5 Z"/></g>
<g><path style="opacity:1" fill="#ff9554" d="M 91.5,38.5 C 93.9308,42.1108 95.5975,46.1108 96.5,50.5C 93.5,50.5 90.5,50.5 87.5,50.5C 88.6318,46.4379 89.9651,42.4379 91.5,38.5 Z"/></g>
<g><path style="opacity:1" fill="#ffc7a5" d="M 115.5,36.5 C 115.5,39.8333 115.5,43.1667 115.5,46.5C 117.833,46.5 120.167,46.5 122.5,46.5C 120.052,47.4731 117.385,47.8064 114.5,47.5C 114.185,43.6286 114.518,39.9619 115.5,36.5 Z"/></g>
<g><path style="opacity:1" fill="#ff9757" d="M 23.5,47.5 C 27.9113,47.021 32.078,47.6876 36,49.5C 37.1397,52.5282 36.3064,54.6949 33.5,56C 30.1832,56.4983 26.8499,56.665 23.5,56.5C 23.5,53.5 23.5,50.5 23.5,47.5 Z"/></g>
<g><path style="opacity:1" fill="#ffc099" d="M 120.5,50.5 C 118.833,50.5 117.167,50.5 115.5,50.5C 115.81,53.7131 115.477,56.7131 114.5,59.5C 114.5,56.1667 114.5,52.8333 114.5,49.5C 116.735,49.2053 118.735,49.5386 120.5,50.5 Z"/></g>
</svg>
