<?xml version="1.0" encoding="UTF-8"?>
<!DOCTYPE svg PUBLIC "-//W3C//DTD SVG 1.1//EN" "http://www.w3.org/Graphics/SVG/1.1/DTD/svg11.dtd">
<svg xmlns="http://www.w3.org/2000/svg" version="1.1" width="1080px" height="413px" style="shape-rendering:geometricPrecision; text-rendering:geometricPrecision; image-rendering:optimizeQuality; fill-rule:evenodd; clip-rule:evenodd" xmlns:xlink="http://www.w3.org/1999/xlink">
<g><path style="opacity:0.961" fill="#fefefe" d="M 704.5,15.5 C 719.837,15.3334 735.17,15.5001 750.5,16C 751.667,16.5 752.5,17.3333 753,18.5C 753.486,74.6275 753.653,130.627 753.5,186.5C 774.282,168.554 794.616,150.054 814.5,131C 848.172,130.167 881.838,130.333 915.5,131.5C 930.973,171.922 946.64,212.255 962.5,252.5C 980.053,212.061 997.053,171.394 1013.5,130.5C 1030.99,130.015 1048.32,130.515 1065.5,132C 1025.17,220.16 985.505,308.66 946.5,397.5C 930.198,398.622 913.865,398.789 897.5,398C 896.484,397.481 895.818,396.647 895.5,395.5C 907.855,366.596 920.688,337.929 934,309.5C 934.887,304.928 934.22,300.595 932,296.5C 910.853,244.719 889.52,193.052 868,141.5C 840.2,166.298 812.7,191.465 785.5,217C 818.497,248.331 851.164,279.997 883.5,312C 873.069,313.132 862.569,313.632 852,313.5C 841.431,313.632 830.931,313.132 820.5,312C 798.333,290.833 776.167,269.667 754,248.5C 753.5,249 753,249.5 752.5,250C 753.829,270.47 753.829,290.97 752.5,311.5C 751.624,312.251 750.624,312.751 749.5,313C 735.167,313.667 720.833,313.667 706.5,313C 705.376,312.751 704.376,312.251 703.5,311.5C 702.336,213.874 702.169,116.207 703,18.5C 703.513,17.4734 704.013,16.4734 704.5,15.5 Z"/></g>
<g><path style="opacity:0.979" fill="#fefefe" d="M 18.5,29.5 C 36.6591,28.5032 54.9924,28.1698 73.5,28.5C 84.9223,94.0419 97.089,159.375 110,224.5C 127.15,159.233 143.983,93.8999 160.5,28.5C 175.167,28.5 189.833,28.5 204.5,28.5C 220.874,93.9974 237.874,159.331 255.5,224.5C 268.144,159.281 280.144,93.9481 291.5,28.5C 309.5,28.5 327.5,28.5 345.5,28.5C 325.833,123.167 306.167,217.833 286.5,312.5C 267.833,312.5 249.167,312.5 230.5,312.5C 215.263,247.98 199.263,183.647 182.5,119.5C 166.024,183.404 149.857,247.404 134,311.5C 115.576,312.493 97.0765,312.826 78.5,312.5C 58.9419,217.952 38.9419,123.619 18.5,29.5 Z"/></g>
<g><path style="opacity:0.968" fill="#fefefe" d="M 428.5,125.5 C 478.192,120.581 513.358,140.581 534,185.5C 546.447,223.439 540.114,257.773 515,288.5C 490.293,312.51 460.793,321.677 426.5,316C 393.683,309.846 370.183,291.679 356,261.5C 343.465,227.956 346.465,195.956 365,165.5C 381.029,143.908 402.195,130.575 428.5,125.5 Z M 434.5,170.5 C 461.421,167.366 479.588,178.366 489,203.5C 495.386,226.225 490.552,246.058 474.5,263C 457.281,273.914 439.281,275.247 420.5,267C 409.944,260.103 402.777,250.603 399,238.5C 392.62,214.333 398.787,194.166 417.5,178C 422.872,174.607 428.538,172.107 434.5,170.5 Z"/></g>
<g><path style="opacity:0.958" fill="#fefefe" d="M 646.5,125.5 C 665.469,122.411 682.802,126.245 698.5,137C 699.894,137.956 700.561,139.289 700.5,141C 694.337,155.16 687.503,168.993 680,182.5C 667.322,169.497 652.488,166.33 635.5,173C 624.249,181.361 617.416,192.528 615,206.5C 614.5,241.832 614.333,277.165 614.5,312.5C 597.923,312.825 581.423,312.492 565,311.5C 564.167,251.164 564.333,190.831 565.5,130.5C 581.456,129.349 597.456,129.182 613.5,130C 614.297,133.745 614.797,137.579 615,141.5C 624.428,133.87 634.928,128.536 646.5,125.5 Z"/></g>
</svg>
