<?xml version="1.0" encoding="UTF-8"?>
<!DOCTYPE svg PUBLIC "-//W3C//DTD SVG 1.1//EN" "http://www.w3.org/Graphics/SVG/1.1/DTD/svg11.dtd">
<svg xmlns="http://www.w3.org/2000/svg" version="1.1" width="1920px" height="1080px" style="shape-rendering:geometricPrecision; text-rendering:geometricPrecision; image-rendering:optimizeQuality; fill-rule:evenodd; clip-rule:evenodd" xmlns:xlink="http://www.w3.org/1999/xlink">
<g><path style="opacity:0.981" fill="#000000" d="M 305.5,561.5 C 304.624,561.631 303.957,561.298 303.5,560.5C 282.077,515.985 260.91,471.319 240,426.5C 238.686,423.911 238.019,421.244 238,418.5C 330.102,323.569 421.602,228.235 512.5,132.5C 513.583,133.365 513.749,134.365 513,135.5C 480.642,201.941 448.475,267.941 416.5,333.5C 417.325,334.386 418.325,334.719 419.5,334.5C 423.923,362.044 429.089,389.378 435,416.5C 445.957,393.09 457.124,369.757 468.5,346.5C 472.888,343.347 475.888,344.347 477.5,349.5C 465.755,375.611 453.921,400.611 442,424.5C 439.8,425.836 437.967,427.502 436.5,429.5C 448.193,492.463 459.693,555.463 471,618.5C 495.505,523.814 520.005,429.148 544.5,334.5C 565.233,333.852 585.733,334.519 606,336.5C 630.333,429.833 654.667,523.167 679,616.5C 697.029,522.669 714.529,428.669 731.5,334.5C 756.833,334.5 782.167,334.5 807.5,334.5C 779.5,469.5 751.5,604.5 723.5,739.5C 697.167,739.5 670.833,739.5 644.5,739.5C 621.804,647.048 598.637,554.714 575,462.5C 552.06,554.758 528.894,646.925 505.5,739C 492.5,739.167 479.5,739.333 466.5,739.5C 453.11,739.49 439.944,738.824 427,737.5C 406.498,638.317 385.498,539.317 364,440.5C 344.783,481.585 325.283,521.918 305.5,561.5 Z"/></g>
<g><path style="opacity:0.94" fill="#000000" d="M 430.5,209.5 C 388.799,251.533 347.799,294.2 307.5,337.5C 306.833,337.5 306.5,337.833 306.5,338.5C 305.833,338.5 305.5,338.833 305.5,339.5C 290.163,354.837 275.163,370.504 260.5,386.5C 259.833,386.5 259.5,386.833 259.5,387.5C 258.833,387.5 258.5,387.833 258.5,388.5C 257.833,388.5 257.5,388.833 257.5,389.5C 256.833,389.5 256.5,389.833 256.5,390.5C 247.896,399.605 239.063,408.605 230,417.5C 220.653,455.887 211.153,494.22 201.5,532.5C 185.938,493.839 171.272,454.672 157.5,415C 157.759,413.739 158.426,412.739 159.5,412C 174.57,399.814 189.57,387.648 204.5,375.5C 220.191,362.803 235.858,350.136 251.5,337.5C 253.754,336.876 255.421,335.543 256.5,333.5C 312.191,288.803 367.858,244.136 423.5,199.5C 438.873,187.156 454.206,174.823 469.5,162.5C 473.148,159.858 476.815,157.191 480.5,154.5C 480.833,154.667 481.167,154.833 481.5,155C 463.928,172.735 446.928,190.901 430.5,209.5 Z"/></g>
<g><path style="opacity:0.004" fill="#000000" d="M 469.5,162.5 C 468.833,161.167 468.833,161.167 469.5,162.5 Z"/></g>
<g><path style="opacity:0.902" fill="#000000" d="M 441.5,177.5 C 425.809,190.197 410.142,202.864 394.5,215.5C 392.246,216.124 390.579,217.457 389.5,219.5C 318.187,276.151 247.187,333.151 176.5,390.5C 174.246,391.124 172.579,392.457 171.5,394.5C 164.75,399.076 158.417,404.242 152.5,410C 123.636,416.172 94.8024,422.339 66,428.5C 65.4926,427.004 65.9926,425.837 67.5,425C 194.97,339.696 322.303,254.196 449.5,168.5C 450.521,169.002 450.688,169.668 450,170.5C 446.977,172.698 444.144,175.031 441.5,177.5 Z"/></g>
<g><path style="opacity:0.004" fill="#000000" d="M 441.5,177.5 C 442.833,178.167 442.833,178.167 441.5,177.5 Z"/></g>
<g><path style="opacity:0.82" fill="#000000" d="M 248.5,192.5 C 255.572,192.558 257.239,195.558 253.5,201.5C 212.46,226.686 171.126,251.352 129.5,275.5C 123.227,272.731 122.894,269.231 128.5,265C 168.397,240.556 208.397,216.39 248.5,192.5 Z"/></g>
<g><path style="opacity:0.004" fill="#000000" d="M 423.5,199.5 C 422.833,198.167 422.833,198.167 423.5,199.5 Z"/></g>
<g><path style="opacity:0.004" fill="#000000" d="M 430.5,209.5 C 431.833,210.167 431.833,210.167 430.5,209.5 Z"/></g>
<g><path style="opacity:0.004" fill="#000000" d="M 394.5,215.5 C 395.833,216.167 395.833,216.167 394.5,215.5 Z"/></g>
<g><path style="opacity:0.004" fill="#000000" d="M 389.5,219.5 C 390.833,220.167 390.833,220.167 389.5,219.5 Z"/></g>
<g><path style="opacity:0.81" fill="#000000" d="M 241.5,228.5 C 248.985,229.593 250.318,233.093 245.5,239C 221.856,252.733 198.356,266.566 175,280.5C 170.794,279.472 169.461,276.805 171,272.5C 191.917,259.29 213.084,246.456 234.5,234C 236.733,231.921 239.066,230.088 241.5,228.5 Z"/></g>
<g><path style="opacity:0.813" fill="#000000" d="M 514.5,316.5 C 519.283,316.449 521.45,318.782 521,323.5C 500.704,369.926 480.538,416.426 460.5,463C 455.052,465.219 452.218,463.386 452,457.5C 466.867,424.429 481.2,391.096 495,357.5C 501.53,343.776 508.03,330.11 514.5,316.5 Z"/></g>
<g><path style="opacity:0.985" fill="#000000" d="M 1371.5,318.5 C 1394.83,318.5 1418.17,318.5 1441.5,318.5C 1441.33,400.167 1441.5,481.834 1442,563.5C 1472.13,536.368 1501.97,508.868 1531.5,481C 1582.83,480.5 1634.17,480.333 1685.5,480.5C 1707.5,539.66 1730,598.66 1753,657.5C 1777.67,598.833 1802.33,540.167 1827,481.5C 1851.09,480.339 1875.26,480.173 1899.5,481C 1842.43,606.974 1785.76,733.14 1729.5,859.5C 1705.17,860.666 1680.84,860.833 1656.5,860C 1676.24,816.687 1695.57,773.187 1714.5,729.5C 1681.63,648.718 1648.46,568.051 1615,487.5C 1572.66,526.344 1530.49,565.344 1488.5,604.5C 1535.02,649.853 1582.02,694.686 1629.5,739C 1599.5,739.667 1569.5,739.667 1539.5,739C 1507.1,708.051 1474.6,677.218 1442,646.5C 1441.5,677.498 1441.33,708.498 1441.5,739.5C 1418.17,739.5 1394.83,739.5 1371.5,739.5C 1371.5,599.167 1371.5,458.833 1371.5,318.5 Z"/></g>
<g><path style="opacity:0.004" fill="#000000" d="M 256.5,333.5 C 255.833,332.167 255.833,332.167 256.5,333.5 Z"/></g>
<g><path style="opacity:0.004" fill="#000000" d="M 251.5,337.5 C 250.833,336.167 250.833,336.167 251.5,337.5 Z"/></g>
<g><path style="opacity:0.004" fill="#000000" d="M 307.5,337.5 C 308.833,338.167 308.833,338.167 307.5,337.5 Z"/></g>
<g><path style="opacity:0.004" fill="#000000" d="M 306.5,338.5 C 306.833,338.5 307.167,338.5 307.5,338.5C 307.315,339.17 306.981,339.17 306.5,338.5 Z"/></g>
<g><path style="opacity:0.004" fill="#000000" d="M 305.5,339.5 C 305.833,339.5 306.167,339.5 306.5,339.5C 306.315,340.17 305.981,340.17 305.5,339.5 Z"/></g>
<g><path style="opacity:0.004" fill="#000000" d="M 204.5,375.5 C 203.833,374.167 203.833,374.167 204.5,375.5 Z"/></g>
<g><path style="opacity:0.004" fill="#000000" d="M 260.5,386.5 C 261.833,387.167 261.833,387.167 260.5,386.5 Z"/></g>
<g><path style="opacity:0.004" fill="#000000" d="M 259.5,387.5 C 259.833,387.5 260.167,387.5 260.5,387.5C 260.315,388.17 259.981,388.17 259.5,387.5 Z"/></g>
<g><path style="opacity:0.004" fill="#000000" d="M 258.5,388.5 C 258.833,388.5 259.167,388.5 259.5,388.5C 259.315,389.17 258.981,389.17 258.5,388.5 Z"/></g>
<g><path style="opacity:0.004" fill="#000000" d="M 257.5,389.5 C 257.833,389.5 258.167,389.5 258.5,389.5C 258.315,390.17 257.981,390.17 257.5,389.5 Z"/></g>
<g><path style="opacity:0.004" fill="#000000" d="M 176.5,390.5 C 177.833,391.167 177.833,391.167 176.5,390.5 Z"/></g>
<g><path style="opacity:0.004" fill="#000000" d="M 256.5,390.5 C 256.833,390.5 257.167,390.5 257.5,390.5C 257.315,391.17 256.981,391.17 256.5,390.5 Z"/></g>
<g><path style="opacity:0.004" fill="#000000" d="M 171.5,394.5 C 172.833,395.167 172.833,395.167 171.5,394.5 Z"/></g>
<g><path style="opacity:0.866" fill="#000000" d="M 218.5,520.5 C 216.031,523.144 213.698,525.977 211.5,529C 210.517,529.591 209.85,529.257 209.5,528C 217.134,495.296 225.301,462.796 234,430.5C 241.895,444.291 248.728,458.624 254.5,473.5C 242.746,489.336 230.746,505.002 218.5,520.5 Z"/></g>
<g><path style="opacity:0.977" fill="#000000" d="M 966.5,473.5 C 1024.35,469.673 1068.19,492.34 1098,541.5C 1123.61,593.913 1120.61,644.579 1089,693.5C 1054.31,736.089 1009.48,753.255 954.5,745C 905.04,735.525 870.54,707.692 851,661.5C 834.817,612.751 841.15,567.418 870,525.5C 894.947,494.612 927.114,477.279 966.5,473.5 Z M 965.5,537.5 C 1007.44,533.039 1033.94,551.039 1045,591.5C 1050.22,617.14 1045.22,640.473 1030,661.5C 1011.66,680.301 989.489,687.134 963.5,682C 935.802,674.969 918.969,657.469 913,629.5C 907.898,604.426 912.565,581.426 927,560.5C 937.235,548.306 950.068,540.64 965.5,537.5 Z"/></g>
<g><path style="opacity:0.967" fill="#000000" d="M 1286.5,473.5 C 1310.64,470.956 1332.64,476.456 1352.5,490C 1354.02,491.351 1355.35,492.851 1356.5,494.5C 1347.13,514.078 1337.46,533.578 1327.5,553C 1326.5,553.667 1325.5,553.667 1324.5,553C 1313.63,541.321 1300.13,535.488 1284,535.5C 1265.22,537.385 1251.56,546.719 1243,563.5C 1238.81,571.403 1235.81,579.736 1234,588.5C 1233.83,638.541 1233.33,688.541 1232.5,738.5C 1231.97,739.192 1231.31,739.692 1230.5,740C 1208.83,740.667 1187.17,740.667 1165.5,740C 1164.33,739.5 1163.5,738.667 1163,737.5C 1162.33,652.167 1162.33,566.833 1163,481.5C 1186.1,480.173 1209.27,480.173 1232.5,481.5C 1233.42,486.952 1233.75,492.286 1233.5,497.5C 1248.65,483.755 1266.32,475.755 1286.5,473.5 Z"/></g>
<g><path style="opacity:0.004" fill="#000000" d="M 218.5,520.5 C 219.833,521.167 219.833,521.167 218.5,520.5 Z"/></g>
<g><path style="opacity:0.832" fill="#000000" d="M 55.5,550.5 C 63.295,549.487 70.1283,551.487 76,556.5C 78.4928,560.478 79.6594,564.811 79.5,569.5C 79.1846,576.078 77.8513,582.412 75.5,588.5C 82.8149,589.415 90.1483,589.582 97.5,589C 102.573,588.559 106.073,586.059 108,581.5C 110.667,578.833 113.333,578.833 116,581.5C 116.917,586.505 115.417,590.672 111.5,594C 106.898,596.867 101.898,598.534 96.5,599C 87.4527,599.252 78.4527,598.919 69.5,598C 59.026,613.739 44.3594,622.573 25.5,624.5C 17.5093,624.901 15.5093,621.735 19.5,615C 36.3576,615.238 49.691,608.571 59.5,595C 45.4395,592.437 36.7729,584.27 33.5,570.5C 34.2134,564.572 36.8801,559.739 41.5,556C 46.0456,553.545 50.7123,551.712 55.5,550.5 Z M 45.5,566.5 C 46.0778,567.547 46.7445,567.38 47.5,566C 47.2716,565.601 46.9382,565.435 46.5,565.5C 48.8895,562.972 51.8895,561.472 55.5,561C 68.1339,558.695 72.6339,563.861 69,576.5C 68.0581,579.993 66.7248,583.326 65,586.5C 57.5516,585.243 51.2182,581.909 46,576.5C 43.1201,573.105 42.9534,569.771 45.5,566.5 Z"/></g>
<g><path style="opacity:0.004" fill="#000000" d="M 305.5,561.5 C 306.833,562.167 306.833,562.167 305.5,561.5 Z"/></g>
</svg>
