<?xml version="1.0" encoding="UTF-8"?>
<!DOCTYPE svg PUBLIC "-//W3C//DTD SVG 1.1//EN" "http://www.w3.org/Graphics/SVG/1.1/DTD/svg11.dtd">
<svg xmlns="http://www.w3.org/2000/svg" version="1.1" width="512px" height="512px" style="shape-rendering:geometricPrecision; text-rendering:geometricPrecision; image-rendering:optimizeQuality; fill-rule:evenodd; clip-rule:evenodd" xmlns:xlink="http://www.w3.org/1999/xlink">
<g><path style="opacity:0.982" fill="#010101" d="M 291.5,-0.5 C 304.833,-0.5 318.167,-0.5 331.5,-0.5C 416.538,11.9461 473.705,58.6127 503,139.5C 506.818,152.765 509.651,166.099 511.5,179.5C 511.5,192.833 511.5,206.167 511.5,219.5C 508.085,249.246 498.751,277.079 483.5,303C 485.535,306.606 486.868,310.439 487.5,314.5C 499.428,318.095 507.428,325.762 511.5,337.5C 511.5,343.167 511.5,348.833 511.5,354.5C 507.35,366.149 499.35,373.982 487.5,378C 458.833,378.333 430.167,378.667 401.5,379C 358.371,399.755 313.371,405.089 266.5,395C 242.78,389.72 220.946,380.22 201,366.5C 157.833,411.667 114.667,456.833 71.5,502C 65.6216,506.273 59.2883,509.439 52.5,511.5C 46.1667,511.5 39.8333,511.5 33.5,511.5C 15.8333,506.5 4.5,495.167 -0.5,477.5C -0.5,471.167 -0.5,464.833 -0.5,458.5C 1.56075,451.712 4.72741,445.378 9,439.5C 54.1667,396.333 99.3333,353.167 144.5,310C 113.547,262.225 104.047,210.391 116,154.5C 117.439,148.187 119.272,142.02 121.5,136C 93.1667,135.667 64.8333,135.333 36.5,135C 16.5283,128.337 8.02833,114.503 11,93.5C 15.4006,78.5958 25.2339,69.9291 40.5,67.5C 45.1972,43.6344 59.1972,28.1344 82.5,21C 106.788,15.8741 127.121,22.5408 143.5,41C 155.6,40.6977 166.1,44.531 175,52.5C 208.159,22.5064 246.992,4.83972 291.5,-0.5 Z"/></g>
<g><path style="opacity:1" fill="#fb5b7b" d="M 232.5,71.5 C 225.879,76.119 219.546,81.119 213.5,86.5C 204.711,80.9415 198.711,82.9415 195.5,92.5C 195.726,95.5172 196.726,98.1838 198.5,100.5C 193.469,107.19 188.469,113.857 183.5,120.5C 174.978,118.477 169.478,121.81 167,130.5C 141.438,191.561 148.438,248.561 188,301.5C 221.623,339.841 264.123,359.341 315.5,360C 320.033,368.202 326.7,373.868 335.5,377C 273.477,384.566 220.977,365.732 178,320.5C 139.045,274.69 124.711,222.024 135,162.5C 152.363,93.4714 194.863,47.9714 262.5,26C 333.837,9.2893 395.004,27.1226 446,79.5C 493.154,137.019 503.487,200.686 477,270.5C 474.513,277.48 471.013,283.814 466.5,289.5C 460.598,286.143 454.265,284.809 447.5,285.5C 460.626,262.616 468.46,237.95 471,211.5C 473.656,150.652 450.489,102.485 401.5,67C 348.116,33.9842 293.116,30.9842 236.5,58C 231.725,61.4922 230.391,65.9922 232.5,71.5 Z"/></g>
<g><path style="opacity:1" fill="#9ec6fc" d="M 90.5,39.5 C 101.452,38.3882 111.452,40.8882 120.5,47C 125.59,51.7511 130.256,56.7511 134.5,62C 140.162,61.9269 145.829,61.9269 151.5,62C 154.656,62.9372 157.489,64.4372 160,66.5C 160.667,67.5 160.667,68.5 160,69.5C 148.004,83.0125 138.171,98.0125 130.5,114.5C 100.506,115.667 70.5056,115.833 40.5,115C 31.0276,110.249 28.5276,103.082 33,93.5C 38.33,88.1583 44.83,85.9916 52.5,87C 55.5827,86.214 57.7494,84.3807 59,81.5C 59.952,60.0809 70.452,46.0809 90.5,39.5 Z"/></g>
<g><path style="opacity:1" fill="#5fa3fe" d="M 183.5,120.5 C 188.469,113.857 193.469,107.19 198.5,100.5C 207.339,105.492 213.006,102.992 215.5,93C 214.967,90.7739 214.3,88.6073 213.5,86.5C 219.546,81.119 225.879,76.119 232.5,71.5C 235.241,76.0217 239.241,77.5217 244.5,76C 297.584,50.4772 348.25,54.4772 396.5,88C 449.548,133.688 464.048,189.521 440,255.5C 437.34,261.49 434.174,267.156 430.5,272.5C 400.492,256.003 374.325,260.669 352,286.5C 347.008,293.816 343.675,301.816 342,310.5C 325.701,313.633 315.867,323.3 312.5,339.5C 258.188,337.769 217.021,313.769 189,267.5C 169.939,232.053 166.272,195.053 178,156.5C 181.657,147.359 185.157,138.193 188.5,129C 187.973,125.438 186.306,122.605 183.5,120.5 Z"/></g>
<g><path style="opacity:1" fill="#050305" d="M 213.5,86.5 C 214.3,88.6073 214.967,90.7739 215.5,93C 213.006,102.992 207.339,105.492 198.5,100.5C 196.726,98.1838 195.726,95.5172 195.5,92.5C 198.711,82.9415 204.711,80.9415 213.5,86.5 Z"/></g>
<g><path style="opacity:1" fill="#040509" d="M 258.5,189.5 C 268.453,189.096 272.62,193.763 271,203.5C 265.362,210.83 259.362,211.163 253,204.5C 250.374,197.767 252.208,192.767 258.5,189.5 Z"/></g>
<g><path style="opacity:1" fill="#030508" d="M 308.5,189.5 C 315.784,188.795 320.117,191.962 321.5,199C 321.333,205.833 317.833,209.333 311,209.5C 302.043,206.638 299.709,200.971 304,192.5C 305.652,191.601 307.152,190.601 308.5,189.5 Z"/></g>
<g><path style="opacity:1" fill="#030508" d="M 358.5,189.5 C 365.784,188.795 370.117,191.962 371.5,199C 371.333,205.833 367.833,209.333 361,209.5C 352.043,206.638 349.709,200.971 354,192.5C 355.652,191.601 357.152,190.601 358.5,189.5 Z"/></g>
<g><path style="opacity:1" fill="#9fc7fd" d="M 392.5,282.5 C 401.669,281.945 410.336,283.778 418.5,288C 424.888,293.054 430.554,298.721 435.5,305C 455.901,301.1 467.734,309.266 471,329.5C 474.069,332.807 477.902,334.307 482.5,334C 491.386,338.269 493.552,344.769 489,353.5C 487.048,355.894 484.548,357.394 481.5,358C 434.833,358.667 388.167,358.667 341.5,358C 333.39,353.936 330.557,347.436 333,338.5C 335.124,334.687 338.291,332.187 342.5,331C 356.969,332.531 363.469,326.031 362,311.5C 367.189,296.475 377.355,286.809 392.5,282.5 Z"/></g>
<g><path style="opacity:1" fill="#fbbe43" d="M 156.5,326.5 C 165.301,336.134 174.635,345.301 184.5,354C 176.698,362.803 168.531,371.303 160,379.5C 150.5,370 141,360.5 131.5,351C 139.728,342.604 148.062,334.437 156.5,326.5 Z"/></g>
<g><path style="opacity:1" fill="#fc5c7b" d="M 116.5,364.5 C 126.632,374.131 136.632,383.964 146.5,394C 117.167,424.667 87.8333,455.333 58.5,486C 42.6596,495.716 30.1596,492.549 21,476.5C 18.0598,467.751 19.3931,459.751 25,452.5C 55.6989,423.3 86.1989,393.966 116.5,364.5 Z"/></g>
</svg>
