<?xml version="1.0" encoding="UTF-8"?>
<!DOCTYPE svg PUBLIC "-//W3C//DTD SVG 1.1//EN" "http://www.w3.org/Graphics/SVG/1.1/DTD/svg11.dtd">
<svg xmlns="http://www.w3.org/2000/svg" version="1.1" width="512px" height="512px" style="shape-rendering:geometricPrecision; text-rendering:geometricPrecision; image-rendering:optimizeQuality; fill-rule:evenodd; clip-rule:evenodd" xmlns:xlink="http://www.w3.org/1999/xlink">
<g><path style="opacity:0.989" fill="#c9d3e3" d="M 68.5,-0.5 C 72.5,-0.5 76.5,-0.5 80.5,-0.5C 84.4788,1.31481 87.3122,4.31481 89,8.5C 89.4996,15.4921 89.6663,22.4921 89.5,29.5C 89.6666,46.17 89.4999,62.8367 89,79.5C 86.5646,86.5604 81.5646,90.2271 74,90.5C 66.8991,89.9477 62.2324,86.281 60,79.5C 59.5001,62.8367 59.3334,46.17 59.5,29.5C 59.3337,22.4921 59.5004,15.4921 60,8.5C 61.6878,4.31481 64.5212,1.31481 68.5,-0.5 Z"/></g>
<g><path style="opacity:0.989" fill="#c9d3e3" d="M 129.5,-0.5 C 133.5,-0.5 137.5,-0.5 141.5,-0.5C 145.479,1.31481 148.312,4.31481 150,8.5C 150.5,15.4921 150.666,22.4921 150.5,29.5C 150.667,46.17 150.5,62.8367 150,79.5C 147.565,86.5604 142.565,90.2271 135,90.5C 127.899,89.9477 123.232,86.281 121,79.5C 120.5,62.8367 120.333,46.17 120.5,29.5C 120.334,22.4921 120.5,15.4921 121,8.5C 122.688,4.31481 125.521,1.31481 129.5,-0.5 Z"/></g>
<g><path style="opacity:0.99" fill="#c9d3e3" d="M 189.5,-0.5 C 191.5,-0.5 193.5,-0.5 195.5,-0.5C 195.5,29.5 195.5,59.5 195.5,89.5C 194.167,89.5 192.833,89.5 191.5,89.5C 185.927,88.4283 182.427,85.095 181,79.5C 180.5,62.8367 180.333,46.17 180.5,29.5C 180.334,22.4921 180.5,15.4921 181,8.5C 182.688,4.31481 185.521,1.31481 189.5,-0.5 Z"/></g>
<g><path style="opacity:0.989" fill="#acb4cb" d="M 250.5,-0.5 C 254.5,-0.5 258.5,-0.5 262.5,-0.5C 266.479,1.31481 269.312,4.31481 271,8.5C 271.5,15.4921 271.666,22.4921 271.5,29.5C 271.667,46.17 271.5,62.8367 271,79.5C 268.565,86.5604 263.565,90.2271 256,90.5C 248.899,89.9477 244.232,86.281 242,79.5C 241.5,62.8367 241.333,46.17 241.5,29.5C 241.334,22.4921 241.5,15.4921 242,8.5C 243.688,4.31481 246.521,1.31481 250.5,-0.5 Z"/></g>
<g><path style="opacity:0.989" fill="#acb4cb" d="M 310.5,-0.5 C 314.5,-0.5 318.5,-0.5 322.5,-0.5C 326.479,1.31481 329.312,4.31481 331,8.5C 331.5,15.4921 331.666,22.4921 331.5,29.5C 331.667,46.17 331.5,62.8367 331,79.5C 328.565,86.5604 323.565,90.2271 316,90.5C 308.899,89.9477 304.232,86.281 302,79.5C 301.5,62.8367 301.333,46.17 301.5,29.5C 301.334,22.4921 301.5,15.4921 302,8.5C 303.688,4.31481 306.521,1.31481 310.5,-0.5 Z"/></g>
<g><path style="opacity:1" fill="#adb5cb" d="M 195.5,-0.5 C 197.5,-0.5 199.5,-0.5 201.5,-0.5C 205.479,1.31481 208.312,4.31481 210,8.5C 210.5,15.4921 210.666,22.4921 210.5,29.5C 210.667,46.17 210.5,62.8367 210,79.5C 207.909,86.7554 203.076,90.4221 195.5,90.5C 193.901,90.7678 192.568,90.4345 191.5,89.5C 192.833,89.5 194.167,89.5 195.5,89.5C 195.5,59.5 195.5,29.5 195.5,-0.5 Z"/></g>
<g><path style="opacity:0.981" fill="#4d5967" d="M 488.5,32.5 C 473.833,58.5 459.167,84.5 444.5,110.5C 444.167,110.5 443.833,110.5 443.5,110.5C 430.635,102.901 417.635,95.5681 404.5,88.5C 413.139,72.56 422.306,56.8933 432,41.5C 448.782,25.1546 467.615,22.1546 488.5,32.5 Z"/></g>
<g><path style="opacity:0.997" fill="#4d5a68" d="M 59.5,29.5 C 59.3334,46.17 59.5001,62.8367 60,79.5C 62.2324,86.281 66.8991,89.9477 74,90.5C 81.5646,90.2271 86.5646,86.5604 89,79.5C 89.4999,62.8367 89.6666,46.17 89.5,29.5C 99.8333,29.5 110.167,29.5 120.5,29.5C 120.333,46.17 120.5,62.8367 121,79.5C 123.232,86.281 127.899,89.9477 135,90.5C 142.565,90.2271 147.565,86.5604 150,79.5C 150.5,62.8367 150.667,46.17 150.5,29.5C 160.5,29.5 170.5,29.5 180.5,29.5C 180.333,46.17 180.5,62.8367 181,79.5C 182.427,85.095 185.927,88.4283 191.5,89.5C 192.568,90.4345 193.901,90.7678 195.5,90.5C 195.5,100.5 195.5,110.5 195.5,120.5C 130.167,120.5 64.8333,120.5 -0.5,120.5C -0.5,102.167 -0.5,83.8333 -0.5,65.5C 9.34381,37.2227 29.3438,25.2227 59.5,29.5 Z"/></g>
<g><path style="opacity:1" fill="#304653" d="M 210.5,29.5 C 220.833,29.5 231.167,29.5 241.5,29.5C 241.333,46.17 241.5,62.8367 242,79.5C 244.232,86.281 248.899,89.9477 256,90.5C 263.565,90.2271 268.565,86.5604 271,79.5C 271.5,62.8367 271.667,46.17 271.5,29.5C 281.5,29.5 291.5,29.5 301.5,29.5C 301.333,46.17 301.5,62.8367 302,79.5C 304.232,86.281 308.899,89.9477 316,90.5C 323.565,90.2271 328.565,86.5604 331,79.5C 331.5,62.8367 331.667,46.17 331.5,29.5C 352.258,25.695 369.425,31.695 383,47.5C 386.748,52.9979 389.415,58.9979 391,65.5C 391.5,79.1626 391.667,92.8293 391.5,106.5C 389.161,111.833 385.828,116.499 381.5,120.5C 319.5,120.5 257.5,120.5 195.5,120.5C 195.5,110.5 195.5,100.5 195.5,90.5C 203.076,90.4221 207.909,86.7554 210,79.5C 210.5,62.8367 210.667,46.17 210.5,29.5 Z"/></g>
<g><path style="opacity:0.999" fill="#e8336c" d="M 404.5,88.5 C 417.635,95.5681 430.635,102.901 443.5,110.5C 402.622,182.724 361.288,254.724 319.5,326.5C 319.043,327.298 318.376,327.631 317.5,327.5C 297.622,319.138 278.955,321.138 261.5,333.5C 265.906,289.377 281.406,249.711 308,214.5C 332.75,183.318 357.25,151.984 381.5,120.5C 385.828,116.499 389.161,111.833 391.5,106.5C 394.115,104.621 396.281,102.288 398,99.5C 399.689,95.4401 401.856,91.7734 404.5,88.5 Z"/></g>
<g><path style="opacity:1" fill="#b12e65" d="M 443.5,110.5 C 443.833,110.5 444.167,110.5 444.5,110.5C 457.019,117.681 469.519,125.014 482,132.5C 481.387,136.507 479.72,140.174 477,143.5C 474.33,149.345 472.164,155.345 470.5,161.5C 462.796,179.598 455.462,197.931 448.5,216.5C 447.662,216.842 447.328,217.508 447.5,218.5C 435.693,247.255 423.693,275.922 411.5,304.5C 410.833,304.5 410.5,304.833 410.5,305.5C 404.949,315.381 398.616,324.714 391.5,333.5C 384.069,342.104 376.402,350.604 368.5,359C 360.245,366.429 351.579,373.262 342.5,379.5C 344.634,361.061 338.967,345.561 325.5,333C 322.941,331.223 320.274,329.723 317.5,328.5C 317.5,328.167 317.5,327.833 317.5,327.5C 318.376,327.631 319.043,327.298 319.5,326.5C 361.288,254.724 402.622,182.724 443.5,110.5 Z"/></g>
<g><path style="opacity:0.999" fill="#fec942" d="M -0.5,120.5 C 64.8333,120.5 130.167,120.5 195.5,120.5C 195.5,210.5 195.5,300.5 195.5,390.5C 153.832,390.333 112.165,390.5 70.5,391C 59.1775,396.307 56.6775,404.474 63,415.5C 65.2583,417.43 67.7583,418.93 70.5,420C 112.165,420.5 153.832,420.667 195.5,420.5C 195.5,450.833 195.5,481.167 195.5,511.5C 141.833,511.5 88.1667,511.5 34.5,511.5C 16.4032,505.737 4.73652,493.737 -0.5,475.5C -0.5,357.167 -0.5,238.833 -0.5,120.5 Z"/></g>
<g><path style="opacity:1" fill="#feae3e" d="M 195.5,120.5 C 257.5,120.5 319.5,120.5 381.5,120.5C 357.25,151.984 332.75,183.318 308,214.5C 281.406,249.711 265.906,289.377 261.5,333.5C 259.607,357.813 257.773,382.146 256,406.5C 252,413.167 248,419.833 244,426.5C 239.385,435.62 241.219,442.953 249.5,448.5C 255.321,451.356 260.988,450.856 266.5,447C 272.251,437.497 278.251,428.163 284.5,419C 304.285,406.361 323.619,393.195 342.5,379.5C 351.579,373.262 360.245,366.429 368.5,359C 376.402,350.604 384.069,342.104 391.5,333.5C 391.667,380.835 391.5,428.168 391,475.5C 386.082,493.916 374.582,505.916 356.5,511.5C 302.833,511.5 249.167,511.5 195.5,511.5C 195.5,481.167 195.5,450.833 195.5,420.5C 207.388,419.084 212.221,412.417 210,400.5C 207.476,393.821 202.643,390.488 195.5,390.5C 195.5,300.5 195.5,210.5 195.5,120.5 Z"/></g>
<g><path style="opacity:0.966" fill="#304653" d="M 488.5,32.5 C 500.676,39.0129 508.342,49.0129 511.5,62.5C 511.5,68.5 511.5,74.5 511.5,80.5C 503.66,98.6746 494.326,116.175 483.5,133C 498.419,140.025 507.753,151.525 511.5,167.5C 511.5,172.5 511.5,177.5 511.5,182.5C 509.957,189.603 507.124,196.27 503,202.5C 488.16,217.332 474.826,233.332 463,250.5C 448.48,275.903 440.147,303.237 438,332.5C 431.323,340.417 423.489,341.917 414.5,337C 410.886,333.438 408.886,329.105 408.5,324C 409.529,317.877 410.196,311.711 410.5,305.5C 411.167,305.5 411.5,305.167 411.5,304.5C 423.693,275.922 435.693,247.255 447.5,218.5C 448.338,218.158 448.672,217.492 448.5,216.5C 456.183,207.195 464.349,198.195 473,189.5C 475.723,186.443 478.056,183.11 480,179.5C 481.315,171.129 478.148,165.129 470.5,161.5C 472.164,155.345 474.33,149.345 477,143.5C 479.72,140.174 481.387,136.507 482,132.5C 469.519,125.014 457.019,117.681 444.5,110.5C 459.167,84.5 473.833,58.5 488.5,32.5 Z"/></g>
<g><path style="opacity:1" fill="#dd864c" d="M 70.5,210.5 C 93.5024,210.333 116.502,210.5 139.5,211C 151.051,216.589 153.385,224.756 146.5,235.5C 144.507,237.499 142.173,238.999 139.5,240C 116.5,240.667 93.5,240.667 70.5,240C 60.2078,235.258 57.3745,227.758 62,217.5C 64.4162,214.577 67.2496,212.243 70.5,210.5 Z"/></g>
<g><path style="opacity:1" fill="#dd864c" d="M 70.5,300.5 C 103.502,300.333 136.502,300.5 169.5,301C 181.051,306.589 183.385,314.756 176.5,325.5C 174.507,327.499 172.173,328.999 169.5,330C 136.5,330.667 103.5,330.667 70.5,330C 60.2078,325.258 57.3745,317.758 62,307.5C 64.4162,304.577 67.2496,302.243 70.5,300.5 Z"/></g>
<g><path style="opacity:1" fill="#cad3e2" d="M 317.5,327.5 C 317.5,327.833 317.5,328.167 317.5,328.5C 294.833,368.5 272.167,408.5 249.5,448.5C 241.219,442.953 239.385,435.62 244,426.5C 248,419.833 252,413.167 256,406.5C 257.773,382.146 259.607,357.813 261.5,333.5C 278.955,321.138 297.622,319.138 317.5,327.5 Z"/></g>
<g><path style="opacity:1" fill="#adb5cb" d="M 317.5,328.5 C 320.274,329.723 322.941,331.223 325.5,333C 338.967,345.561 344.634,361.061 342.5,379.5C 323.619,393.195 304.285,406.361 284.5,419C 278.251,428.163 272.251,437.497 266.5,447C 260.988,450.856 255.321,451.356 249.5,448.5C 272.167,408.5 294.833,368.5 317.5,328.5 Z"/></g>
<g><path style="opacity:1" fill="#dd864c" d="M 195.5,390.5 C 195.5,400.5 195.5,410.5 195.5,420.5C 153.832,420.667 112.165,420.5 70.5,420C 67.7583,418.93 65.2583,417.43 63,415.5C 56.6775,404.474 59.1775,396.307 70.5,391C 112.165,390.5 153.832,390.333 195.5,390.5 Z"/></g>
<g><path style="opacity:1" fill="#d36936" d="M 195.5,390.5 C 202.643,390.488 207.476,393.821 210,400.5C 212.221,412.417 207.388,419.084 195.5,420.5C 195.5,410.5 195.5,400.5 195.5,390.5 Z"/></g>
</svg>
