<?xml version="1.0" encoding="UTF-8"?>
<!DOCTYPE svg PUBLIC "-//W3C//DTD SVG 1.1//EN" "http://www.w3.org/Graphics/SVG/1.1/DTD/svg11.dtd">
<svg xmlns="http://www.w3.org/2000/svg" version="1.1" width="512px" height="512px" style="shape-rendering:geometricPrecision; text-rendering:geometricPrecision; image-rendering:optimizeQuality; fill-rule:evenodd; clip-rule:evenodd" xmlns:xlink="http://www.w3.org/1999/xlink">
<g><path style="opacity:1" fill="#ffe854" d="M 460.5,127.5 C 433.299,170.365 396.299,201.698 349.5,221.5C 349.5,205.167 349.5,188.833 349.5,172.5C 363.798,157.701 378.298,143.035 393,128.5C 395.796,122.093 393.796,118.093 387,116.5C 385.373,116.625 383.873,117.125 382.5,118C 371.632,129.035 360.632,139.869 349.5,150.5C 349.666,144.158 349.5,137.825 349,131.5C 348.167,128 346,125.833 342.5,125C 284.167,124.333 225.833,124.333 167.5,125C 164.619,126.251 162.786,128.417 162,131.5C 161.5,161.498 161.333,191.498 161.5,221.5C 114.701,201.698 77.7007,170.365 50.5,127.5C 98.7493,54.1933 167.083,16.5266 255.5,14.5C 343.917,16.5266 412.251,54.1933 460.5,127.5 Z"/></g>
<g><path style="opacity:1" fill="#fffefd" d="M 349.5,172.5 C 286.5,234.833 223.833,297.5 161.5,360.5C 150.368,371.131 139.368,381.965 128.5,393C 122.093,395.796 118.093,393.796 116.5,387C 116.625,385.373 117.125,383.873 118,382.5C 132.702,367.965 147.202,353.299 161.5,338.5C 224.5,276.167 287.167,213.5 349.5,150.5C 360.632,139.869 371.632,129.035 382.5,118C 383.873,117.125 385.373,116.625 387,116.5C 393.796,118.093 395.796,122.093 393,128.5C 378.298,143.035 363.798,157.701 349.5,172.5 Z"/></g>
<g><path style="opacity:1" fill="#ff3545" d="M 349.5,150.5 C 287.167,213.5 224.5,276.167 161.5,338.5C 161.5,299.5 161.5,260.5 161.5,221.5C 161.333,191.498 161.5,161.498 162,131.5C 162.786,128.417 164.619,126.251 167.5,125C 225.833,124.333 284.167,124.333 342.5,125C 346,125.833 348.167,128 349,131.5C 349.5,137.825 349.666,144.158 349.5,150.5 Z"/></g>
<g><path style="opacity:0.996" fill="#fdd010" d="M 50.5,127.5 C 77.7007,170.365 114.701,201.698 161.5,221.5C 161.5,260.5 161.5,299.5 161.5,338.5C 147.202,353.299 132.702,367.965 118,382.5C 117.125,383.873 116.625,385.373 116.5,387C 118.093,393.796 122.093,395.796 128.5,393C 139.368,381.965 150.368,371.131 161.5,360.5C 161.334,367.175 161.5,373.842 162,380.5C 163.45,385.308 166.616,387.141 171.5,386C 197.331,371.252 222.997,356.252 248.5,341C 253.167,337.667 257.833,337.667 262.5,341C 288.544,356.688 314.878,371.855 341.5,386.5C 345.63,386.516 348.13,384.516 349,380.5C 349.5,327.501 349.667,274.501 349.5,221.5C 396.299,201.698 433.299,170.365 460.5,127.5C 500.853,195.857 507.686,267.523 481,342.5C 450.125,417.709 395.625,466.542 317.5,489C 222.837,510.216 142.004,486.05 75,416.5C 13.8789,342.459 -1.12114,259.793 30,168.5C 35.7921,154.249 42.6255,140.582 50.5,127.5 Z"/></g>
<g><path style="opacity:1" fill="#ff3645" d="M 349.5,172.5 C 349.5,188.833 349.5,205.167 349.5,221.5C 349.667,274.501 349.5,327.501 349,380.5C 348.13,384.516 345.63,386.516 341.5,386.5C 314.878,371.855 288.544,356.688 262.5,341C 257.833,337.667 253.167,337.667 248.5,341C 222.997,356.252 197.331,371.252 171.5,386C 166.616,387.141 163.45,385.308 162,380.5C 161.5,373.842 161.334,367.175 161.5,360.5C 223.833,297.5 286.5,234.833 349.5,172.5 Z"/></g>
<g><path style="opacity:1" fill="#e8c113" d="M 209.5,411.5 C 269.596,410.305 329.596,412.139 389.5,417C 394.489,417.749 399.489,418.415 404.5,419C 406.623,419.815 408.623,420.815 410.5,422C 406.854,424.248 402.854,425.582 398.5,426C 322.95,432.494 247.284,434.16 171.5,431C 152.297,429.935 133.131,428.435 114,426.5C 108.964,426.369 104.464,424.869 100.5,422C 106.056,418.951 112.056,417.285 118.5,417C 148.938,414.263 179.272,412.43 209.5,411.5 Z"/></g>
</svg>
